<svg width="19" height="16" viewBox="0 0 19 16" fill="none" xmlns="http://www.w3.org/2000/svg">
<path fill-rule="evenodd" clip-rule="evenodd" d="M2.24801 16C1.10186 16 0 15.5227 0 13.4501C0 8.17173 7.12713 0 13.7388 0C17.5006 0 19 2.63893 19 5.63627C19 9.48373 16.5316 13.8827 14.0771 13.8827C13.2986 13.8827 12.9166 13.4501 12.9166 12.7637C12.9166 12.5851 12.9459 12.3915 13.0046 12.1824C12.1669 13.6288 10.5506 14.9712 9.03685 14.9712C7.93499 14.9712 7.37632 14.2704 7.37632 13.2864C7.37632 12.928 7.44995 12.5552 7.58228 12.1829C6.49537 13.8677 4.67263 16 2.24801 16ZM11.4615 5.30827C11.4615 4.56267 11.8729 4.04107 12.4753 4.04107C13.0633 4.04107 13.4747 4.56267 13.4747 5.30827C13.4747 6.05387 13.0638 6.59093 12.4758 6.59093C11.8729 6.59093 11.4615 6.05387 11.4615 5.30827ZM15.6203 4.04107C15.0173 4.04107 14.6064 4.56267 14.6064 5.30827C14.6064 6.05387 15.0173 6.59093 15.6203 6.59093C16.2083 6.59093 16.6191 6.05387 16.6191 5.30827C16.6191 4.56267 16.2077 4.04107 15.6203 4.04107Z" fill="#E4E1F5"/>
</svg>
